<mxfile host="app.diagrams.net" modified="2022-08-18T06:43:53.737Z" agent="5.0 (Windows NT 10.0; Win64; x64) AppleWebKit/537.36 (KHTML, like Gecko) Chrome/95.0.4638.69 Safari/537.36" etag="8HSggPyTrG6e83pBOsCr" version="20.2.2" type="github">
  <diagram id="WygUvt_7TBFnepqblgQ6" name="第 1 页">
    <mxGraphModel dx="1550" dy="2039" grid="1" gridSize="10" guides="1" tooltips="1" connect="1" arrows="1" fold="1" page="1" pageScale="1" pageWidth="827" pageHeight="1169" math="0" shadow="0">
      <root>
        <mxCell id="0" />
        <mxCell id="1" parent="0" />
        <mxCell id="NKLrm3bsePy-a2xdgCVw-3" value="" style="edgeStyle=orthogonalEdgeStyle;rounded=0;orthogonalLoop=1;jettySize=auto;html=1;" parent="1" source="NKLrm3bsePy-a2xdgCVw-1" target="NKLrm3bsePy-a2xdgCVw-2" edge="1">
          <mxGeometry relative="1" as="geometry" />
        </mxCell>
        <mxCell id="NKLrm3bsePy-a2xdgCVw-1" value="数据对象A" style="rounded=1;whiteSpace=wrap;html=1;fillColor=#ffe6cc;strokeColor=#d79b00;glass=0;sketch=1;" parent="1" vertex="1">
          <mxGeometry x="300" y="290" width="120" height="60" as="geometry" />
        </mxCell>
        <mxCell id="NKLrm3bsePy-a2xdgCVw-5" value="" style="edgeStyle=orthogonalEdgeStyle;rounded=0;orthogonalLoop=1;jettySize=auto;html=1;" parent="1" source="NKLrm3bsePy-a2xdgCVw-2" target="NKLrm3bsePy-a2xdgCVw-4" edge="1">
          <mxGeometry relative="1" as="geometry" />
        </mxCell>
        <mxCell id="NKLrm3bsePy-a2xdgCVw-2" value="存储池A&lt;br&gt;（设置策略级复制）" style="rounded=1;whiteSpace=wrap;html=1;fillColor=#d5e8d4;strokeColor=#82b366;glass=0;sketch=1;" parent="1" vertex="1">
          <mxGeometry x="300" y="450" width="120" height="60" as="geometry" />
        </mxCell>
        <mxCell id="NKLrm3bsePy-a2xdgCVw-12" value="" style="edgeStyle=orthogonalEdgeStyle;rounded=0;orthogonalLoop=1;jettySize=auto;html=1;" parent="1" source="NKLrm3bsePy-a2xdgCVw-4" target="NKLrm3bsePy-a2xdgCVw-11" edge="1">
          <mxGeometry relative="1" as="geometry" />
        </mxCell>
        <mxCell id="NKLrm3bsePy-a2xdgCVw-4" value="存储池B&lt;br&gt;（设置池级复制）" style="rounded=1;whiteSpace=wrap;html=1;fillColor=#dae8fc;strokeColor=#6c8ebf;glass=0;sketch=1;" parent="1" vertex="1">
          <mxGeometry x="650" y="450" width="120" height="60" as="geometry" />
        </mxCell>
        <mxCell id="NKLrm3bsePy-a2xdgCVw-6" value="策略级复制" style="text;html=1;align=center;verticalAlign=middle;resizable=0;points=[];autosize=1;strokeColor=none;fillColor=none;" parent="1" vertex="1">
          <mxGeometry x="480" y="455" width="80" height="30" as="geometry" />
        </mxCell>
        <mxCell id="NKLrm3bsePy-a2xdgCVw-8" value="" style="edgeStyle=orthogonalEdgeStyle;rounded=0;orthogonalLoop=1;jettySize=auto;html=1;" parent="1" source="NKLrm3bsePy-a2xdgCVw-7" target="NKLrm3bsePy-a2xdgCVw-4" edge="1">
          <mxGeometry relative="1" as="geometry" />
        </mxCell>
        <mxCell id="NKLrm3bsePy-a2xdgCVw-7" value="数据对象B" style="rounded=1;whiteSpace=wrap;html=1;fillColor=#f8cecc;strokeColor=#b85450;glass=0;sketch=1;" parent="1" vertex="1">
          <mxGeometry x="650" y="290" width="120" height="60" as="geometry" />
        </mxCell>
        <mxCell id="NKLrm3bsePy-a2xdgCVw-9" value="备份" style="text;html=1;align=center;verticalAlign=middle;resizable=0;points=[];autosize=1;strokeColor=none;fillColor=none;" parent="1" vertex="1">
          <mxGeometry x="350" y="380" width="50" height="30" as="geometry" />
        </mxCell>
        <mxCell id="NKLrm3bsePy-a2xdgCVw-10" value="备份" style="text;html=1;align=center;verticalAlign=middle;resizable=0;points=[];autosize=1;strokeColor=none;fillColor=none;" parent="1" vertex="1">
          <mxGeometry x="700" y="380" width="50" height="30" as="geometry" />
        </mxCell>
        <mxCell id="NKLrm3bsePy-a2xdgCVw-11" value="存储池C" style="rounded=1;whiteSpace=wrap;html=1;fillColor=#ffcc99;strokeColor=#36393d;glass=0;sketch=1;" parent="1" vertex="1">
          <mxGeometry x="970" y="450" width="120" height="60" as="geometry" />
        </mxCell>
        <mxCell id="NKLrm3bsePy-a2xdgCVw-13" value="存储池级复制" style="text;html=1;align=center;verticalAlign=middle;resizable=0;points=[];autosize=1;strokeColor=none;fillColor=none;" parent="1" vertex="1">
          <mxGeometry x="820" y="455" width="100" height="30" as="geometry" />
        </mxCell>
        <mxCell id="y6izujd-BnKyKJJSsD-p-2" value="" style="edgeStyle=orthogonalEdgeStyle;rounded=0;orthogonalLoop=1;jettySize=auto;html=1;" edge="1" parent="1" source="y6izujd-BnKyKJJSsD-p-3" target="y6izujd-BnKyKJJSsD-p-5">
          <mxGeometry relative="1" as="geometry" />
        </mxCell>
        <mxCell id="y6izujd-BnKyKJJSsD-p-3" value="数据对象A" style="rounded=1;whiteSpace=wrap;html=1;fillColor=#ffe6cc;strokeColor=#d79b00;glass=0;sketch=1;" vertex="1" parent="1">
          <mxGeometry x="300" y="660" width="120" height="60" as="geometry" />
        </mxCell>
        <mxCell id="y6izujd-BnKyKJJSsD-p-4" value="" style="edgeStyle=orthogonalEdgeStyle;rounded=0;orthogonalLoop=1;jettySize=auto;html=1;" edge="1" parent="1" source="y6izujd-BnKyKJJSsD-p-5" target="y6izujd-BnKyKJJSsD-p-7">
          <mxGeometry relative="1" as="geometry" />
        </mxCell>
        <mxCell id="y6izujd-BnKyKJJSsD-p-5" value="存储池A&lt;br&gt;（设置策略级复制）" style="rounded=1;whiteSpace=wrap;html=1;fillColor=#d5e8d4;strokeColor=#82b366;glass=0;sketch=1;" vertex="1" parent="1">
          <mxGeometry x="300" y="820" width="120" height="60" as="geometry" />
        </mxCell>
        <mxCell id="y6izujd-BnKyKJJSsD-p-6" value="" style="edgeStyle=orthogonalEdgeStyle;rounded=0;orthogonalLoop=1;jettySize=auto;html=1;" edge="1" parent="1" source="y6izujd-BnKyKJJSsD-p-7" target="y6izujd-BnKyKJJSsD-p-13">
          <mxGeometry relative="1" as="geometry" />
        </mxCell>
        <mxCell id="y6izujd-BnKyKJJSsD-p-7" value="存储池B&lt;br&gt;（设置池级复制）" style="rounded=1;whiteSpace=wrap;html=1;fillColor=#dae8fc;strokeColor=#6c8ebf;glass=0;sketch=1;" vertex="1" parent="1">
          <mxGeometry x="650" y="820" width="120" height="60" as="geometry" />
        </mxCell>
        <mxCell id="y6izujd-BnKyKJJSsD-p-8" value="策略级复制" style="text;html=1;align=center;verticalAlign=middle;resizable=0;points=[];autosize=1;strokeColor=none;fillColor=none;" vertex="1" parent="1">
          <mxGeometry x="480" y="825" width="80" height="30" as="geometry" />
        </mxCell>
        <mxCell id="y6izujd-BnKyKJJSsD-p-9" value="" style="edgeStyle=orthogonalEdgeStyle;rounded=0;orthogonalLoop=1;jettySize=auto;html=1;" edge="1" parent="1" source="y6izujd-BnKyKJJSsD-p-10" target="y6izujd-BnKyKJJSsD-p-7">
          <mxGeometry relative="1" as="geometry" />
        </mxCell>
        <mxCell id="y6izujd-BnKyKJJSsD-p-10" value="数据对象B" style="rounded=1;whiteSpace=wrap;html=1;fillColor=#f8cecc;strokeColor=#b85450;glass=0;sketch=1;" vertex="1" parent="1">
          <mxGeometry x="650" y="660" width="120" height="60" as="geometry" />
        </mxCell>
        <mxCell id="y6izujd-BnKyKJJSsD-p-11" value="备份" style="text;html=1;align=center;verticalAlign=middle;resizable=0;points=[];autosize=1;strokeColor=none;fillColor=none;" vertex="1" parent="1">
          <mxGeometry x="350" y="750" width="50" height="30" as="geometry" />
        </mxCell>
        <mxCell id="y6izujd-BnKyKJJSsD-p-12" value="备份" style="text;html=1;align=center;verticalAlign=middle;resizable=0;points=[];autosize=1;strokeColor=none;fillColor=none;" vertex="1" parent="1">
          <mxGeometry x="700" y="750" width="50" height="30" as="geometry" />
        </mxCell>
        <mxCell id="y6izujd-BnKyKJJSsD-p-16" value="" style="edgeStyle=orthogonalEdgeStyle;rounded=0;orthogonalLoop=1;jettySize=auto;html=1;" edge="1" parent="1" source="y6izujd-BnKyKJJSsD-p-13" target="y6izujd-BnKyKJJSsD-p-15">
          <mxGeometry relative="1" as="geometry" />
        </mxCell>
        <mxCell id="y6izujd-BnKyKJJSsD-p-13" value="存储池C&lt;br&gt;（设置策略级复制）" style="rounded=1;whiteSpace=wrap;html=1;fillColor=#ffcc99;strokeColor=#36393d;glass=0;sketch=1;" vertex="1" parent="1">
          <mxGeometry x="970" y="820" width="120" height="60" as="geometry" />
        </mxCell>
        <mxCell id="y6izujd-BnKyKJJSsD-p-14" value="存储池级复制" style="text;html=1;align=center;verticalAlign=middle;resizable=0;points=[];autosize=1;strokeColor=none;fillColor=none;" vertex="1" parent="1">
          <mxGeometry x="820" y="825" width="100" height="30" as="geometry" />
        </mxCell>
        <mxCell id="y6izujd-BnKyKJJSsD-p-15" value="存储池D" style="rounded=1;whiteSpace=wrap;html=1;fillColor=#b0e3e6;strokeColor=#0e8088;glass=0;sketch=1;" vertex="1" parent="1">
          <mxGeometry x="1270" y="820" width="120" height="60" as="geometry" />
        </mxCell>
        <mxCell id="y6izujd-BnKyKJJSsD-p-17" value="" style="edgeStyle=orthogonalEdgeStyle;rounded=0;orthogonalLoop=1;jettySize=auto;html=1;" edge="1" parent="1" source="y6izujd-BnKyKJJSsD-p-18" target="y6izujd-BnKyKJJSsD-p-20">
          <mxGeometry relative="1" as="geometry" />
        </mxCell>
        <mxCell id="y6izujd-BnKyKJJSsD-p-18" value="数据对象A" style="rounded=1;whiteSpace=wrap;html=1;fillColor=#ffe6cc;strokeColor=#d79b00;glass=0;sketch=1;" vertex="1" parent="1">
          <mxGeometry x="300" y="1030" width="120" height="60" as="geometry" />
        </mxCell>
        <mxCell id="y6izujd-BnKyKJJSsD-p-19" value="" style="edgeStyle=orthogonalEdgeStyle;rounded=0;orthogonalLoop=1;jettySize=auto;html=1;" edge="1" parent="1" source="y6izujd-BnKyKJJSsD-p-20" target="y6izujd-BnKyKJJSsD-p-22">
          <mxGeometry relative="1" as="geometry" />
        </mxCell>
        <mxCell id="y6izujd-BnKyKJJSsD-p-20" value="存储池A&lt;br&gt;（设置策略级复制）" style="rounded=1;whiteSpace=wrap;html=1;fillColor=#d5e8d4;strokeColor=#82b366;glass=0;sketch=1;" vertex="1" parent="1">
          <mxGeometry x="300" y="1190" width="120" height="60" as="geometry" />
        </mxCell>
        <mxCell id="y6izujd-BnKyKJJSsD-p-21" value="" style="edgeStyle=orthogonalEdgeStyle;rounded=0;orthogonalLoop=1;jettySize=auto;html=1;" edge="1" parent="1" source="y6izujd-BnKyKJJSsD-p-22" target="y6izujd-BnKyKJJSsD-p-29">
          <mxGeometry relative="1" as="geometry" />
        </mxCell>
        <mxCell id="y6izujd-BnKyKJJSsD-p-22" value="存储池B&lt;br&gt;（设置池级复制）" style="rounded=1;whiteSpace=wrap;html=1;fillColor=#dae8fc;strokeColor=#6c8ebf;glass=0;sketch=1;" vertex="1" parent="1">
          <mxGeometry x="650" y="1190" width="120" height="60" as="geometry" />
        </mxCell>
        <mxCell id="y6izujd-BnKyKJJSsD-p-23" value="策略级复制" style="text;html=1;align=center;verticalAlign=middle;resizable=0;points=[];autosize=1;strokeColor=none;fillColor=none;" vertex="1" parent="1">
          <mxGeometry x="480" y="1195" width="80" height="30" as="geometry" />
        </mxCell>
        <mxCell id="y6izujd-BnKyKJJSsD-p-24" value="" style="edgeStyle=orthogonalEdgeStyle;rounded=0;orthogonalLoop=1;jettySize=auto;html=1;" edge="1" parent="1" source="y6izujd-BnKyKJJSsD-p-25" target="y6izujd-BnKyKJJSsD-p-22">
          <mxGeometry relative="1" as="geometry" />
        </mxCell>
        <mxCell id="y6izujd-BnKyKJJSsD-p-25" value="数据对象B" style="rounded=1;whiteSpace=wrap;html=1;fillColor=#f8cecc;strokeColor=#b85450;glass=0;sketch=1;" vertex="1" parent="1">
          <mxGeometry x="650" y="1030" width="120" height="60" as="geometry" />
        </mxCell>
        <mxCell id="y6izujd-BnKyKJJSsD-p-26" value="备份" style="text;html=1;align=center;verticalAlign=middle;resizable=0;points=[];autosize=1;strokeColor=none;fillColor=none;" vertex="1" parent="1">
          <mxGeometry x="350" y="1120" width="50" height="30" as="geometry" />
        </mxCell>
        <mxCell id="y6izujd-BnKyKJJSsD-p-27" value="备份" style="text;html=1;align=center;verticalAlign=middle;resizable=0;points=[];autosize=1;strokeColor=none;fillColor=none;" vertex="1" parent="1">
          <mxGeometry x="700" y="1120" width="50" height="30" as="geometry" />
        </mxCell>
        <mxCell id="y6izujd-BnKyKJJSsD-p-28" value="" style="edgeStyle=orthogonalEdgeStyle;rounded=0;orthogonalLoop=1;jettySize=auto;html=1;" edge="1" parent="1" source="y6izujd-BnKyKJJSsD-p-29" target="y6izujd-BnKyKJJSsD-p-31">
          <mxGeometry relative="1" as="geometry" />
        </mxCell>
        <mxCell id="y6izujd-BnKyKJJSsD-p-29" value="存储池C&lt;br&gt;（设置池级复制）" style="rounded=1;whiteSpace=wrap;html=1;fillColor=#ffcc99;strokeColor=#36393d;glass=0;sketch=1;" vertex="1" parent="1">
          <mxGeometry x="970" y="1190" width="120" height="60" as="geometry" />
        </mxCell>
        <mxCell id="y6izujd-BnKyKJJSsD-p-30" value="存储池级复制" style="text;html=1;align=center;verticalAlign=middle;resizable=0;points=[];autosize=1;strokeColor=none;fillColor=none;" vertex="1" parent="1">
          <mxGeometry x="820" y="1195" width="100" height="30" as="geometry" />
        </mxCell>
        <mxCell id="y6izujd-BnKyKJJSsD-p-31" value="存储池D" style="rounded=1;whiteSpace=wrap;html=1;fillColor=#b0e3e6;strokeColor=#0e8088;glass=0;sketch=1;" vertex="1" parent="1">
          <mxGeometry x="1270" y="1190" width="120" height="60" as="geometry" />
        </mxCell>
        <mxCell id="y6izujd-BnKyKJJSsD-p-32" value="存储池级复制" style="text;html=1;align=center;verticalAlign=middle;resizable=0;points=[];autosize=1;strokeColor=none;fillColor=none;" vertex="1" parent="1">
          <mxGeometry x="1120" y="1195" width="100" height="30" as="geometry" />
        </mxCell>
        <mxCell id="y6izujd-BnKyKJJSsD-p-33" value="" style="edgeStyle=orthogonalEdgeStyle;rounded=0;orthogonalLoop=1;jettySize=auto;html=1;" edge="1" parent="1" source="y6izujd-BnKyKJJSsD-p-34" target="y6izujd-BnKyKJJSsD-p-36">
          <mxGeometry relative="1" as="geometry" />
        </mxCell>
        <mxCell id="y6izujd-BnKyKJJSsD-p-34" value="数据对象A" style="rounded=1;whiteSpace=wrap;html=1;fillColor=#ffe6cc;strokeColor=#d79b00;glass=0;sketch=1;" vertex="1" parent="1">
          <mxGeometry x="300" y="-500" width="120" height="60" as="geometry" />
        </mxCell>
        <mxCell id="y6izujd-BnKyKJJSsD-p-35" value="" style="edgeStyle=orthogonalEdgeStyle;rounded=0;orthogonalLoop=1;jettySize=auto;html=1;entryX=0.5;entryY=1;entryDx=0;entryDy=0;" edge="1" parent="1" source="y6izujd-BnKyKJJSsD-p-36" target="y6izujd-BnKyKJJSsD-p-44">
          <mxGeometry relative="1" as="geometry">
            <mxPoint x="1050" y="-160" as="targetPoint" />
            <Array as="points">
              <mxPoint x="360" y="-230" />
              <mxPoint x="1030" y="-230" />
            </Array>
          </mxGeometry>
        </mxCell>
        <mxCell id="y6izujd-BnKyKJJSsD-p-36" value="存储池A&lt;br&gt;（设置策略级复制）" style="rounded=1;whiteSpace=wrap;html=1;fillColor=#d5e8d4;strokeColor=#82b366;glass=0;sketch=1;" vertex="1" parent="1">
          <mxGeometry x="300" y="-340" width="120" height="60" as="geometry" />
        </mxCell>
        <mxCell id="y6izujd-BnKyKJJSsD-p-37" value="" style="edgeStyle=orthogonalEdgeStyle;rounded=0;orthogonalLoop=1;jettySize=auto;html=1;" edge="1" parent="1" source="y6izujd-BnKyKJJSsD-p-38" target="y6izujd-BnKyKJJSsD-p-44">
          <mxGeometry relative="1" as="geometry" />
        </mxCell>
        <mxCell id="y6izujd-BnKyKJJSsD-p-38" value="存储池B&lt;br&gt;（设置池级复制）" style="rounded=1;whiteSpace=wrap;html=1;fillColor=#dae8fc;strokeColor=#6c8ebf;glass=0;sketch=1;" vertex="1" parent="1">
          <mxGeometry x="650" y="-340" width="120" height="60" as="geometry" />
        </mxCell>
        <mxCell id="y6izujd-BnKyKJJSsD-p-39" value="策略级复制" style="text;html=1;align=center;verticalAlign=middle;resizable=0;points=[];autosize=1;strokeColor=none;fillColor=none;" vertex="1" parent="1">
          <mxGeometry x="830" y="-260" width="80" height="30" as="geometry" />
        </mxCell>
        <mxCell id="y6izujd-BnKyKJJSsD-p-40" value="" style="edgeStyle=orthogonalEdgeStyle;rounded=0;orthogonalLoop=1;jettySize=auto;html=1;" edge="1" parent="1" source="y6izujd-BnKyKJJSsD-p-41" target="y6izujd-BnKyKJJSsD-p-38">
          <mxGeometry relative="1" as="geometry" />
        </mxCell>
        <mxCell id="y6izujd-BnKyKJJSsD-p-41" value="数据对象B" style="rounded=1;whiteSpace=wrap;html=1;fillColor=#f8cecc;strokeColor=#b85450;glass=0;sketch=1;" vertex="1" parent="1">
          <mxGeometry x="650" y="-500" width="120" height="60" as="geometry" />
        </mxCell>
        <mxCell id="y6izujd-BnKyKJJSsD-p-42" value="备份" style="text;html=1;align=center;verticalAlign=middle;resizable=0;points=[];autosize=1;strokeColor=none;fillColor=none;" vertex="1" parent="1">
          <mxGeometry x="350" y="-410" width="50" height="30" as="geometry" />
        </mxCell>
        <mxCell id="y6izujd-BnKyKJJSsD-p-43" value="备份" style="text;html=1;align=center;verticalAlign=middle;resizable=0;points=[];autosize=1;strokeColor=none;fillColor=none;" vertex="1" parent="1">
          <mxGeometry x="700" y="-410" width="50" height="30" as="geometry" />
        </mxCell>
        <mxCell id="y6izujd-BnKyKJJSsD-p-44" value="存储池C" style="rounded=1;whiteSpace=wrap;html=1;fillColor=#ffcc99;strokeColor=#36393d;glass=0;sketch=1;" vertex="1" parent="1">
          <mxGeometry x="970" y="-340" width="120" height="60" as="geometry" />
        </mxCell>
        <mxCell id="y6izujd-BnKyKJJSsD-p-45" value="存储池级复制" style="text;html=1;align=center;verticalAlign=middle;resizable=0;points=[];autosize=1;strokeColor=none;fillColor=none;" vertex="1" parent="1">
          <mxGeometry x="820" y="-335" width="100" height="30" as="geometry" />
        </mxCell>
        <mxCell id="y6izujd-BnKyKJJSsD-p-59" value="" style="edgeStyle=orthogonalEdgeStyle;rounded=0;orthogonalLoop=1;jettySize=auto;html=1;" edge="1" parent="1" source="y6izujd-BnKyKJJSsD-p-60" target="y6izujd-BnKyKJJSsD-p-62">
          <mxGeometry relative="1" as="geometry" />
        </mxCell>
        <mxCell id="y6izujd-BnKyKJJSsD-p-60" value="数据对象A" style="rounded=1;whiteSpace=wrap;html=1;fillColor=#ffe6cc;strokeColor=#d79b00;glass=0;sketch=1;" vertex="1" parent="1">
          <mxGeometry x="300" y="-100" width="120" height="60" as="geometry" />
        </mxCell>
        <mxCell id="y6izujd-BnKyKJJSsD-p-61" value="" style="edgeStyle=orthogonalEdgeStyle;rounded=0;orthogonalLoop=1;jettySize=auto;html=1;" edge="1" parent="1" source="y6izujd-BnKyKJJSsD-p-62" target="y6izujd-BnKyKJJSsD-p-64">
          <mxGeometry relative="1" as="geometry" />
        </mxCell>
        <mxCell id="y6izujd-BnKyKJJSsD-p-62" value="存储池A&lt;br&gt;（设置池级复制）" style="rounded=1;whiteSpace=wrap;html=1;fillColor=#d5e8d4;strokeColor=#82b366;glass=0;sketch=1;" vertex="1" parent="1">
          <mxGeometry x="300" y="60" width="120" height="60" as="geometry" />
        </mxCell>
        <mxCell id="y6izujd-BnKyKJJSsD-p-63" value="" style="edgeStyle=orthogonalEdgeStyle;rounded=0;orthogonalLoop=1;jettySize=auto;html=1;" edge="1" parent="1" source="y6izujd-BnKyKJJSsD-p-64" target="y6izujd-BnKyKJJSsD-p-70">
          <mxGeometry relative="1" as="geometry" />
        </mxCell>
        <mxCell id="y6izujd-BnKyKJJSsD-p-64" value="存储池B&lt;br&gt;（设置策略级复制）" style="rounded=1;whiteSpace=wrap;html=1;fillColor=#dae8fc;strokeColor=#6c8ebf;glass=0;sketch=1;" vertex="1" parent="1">
          <mxGeometry x="650" y="60" width="120" height="60" as="geometry" />
        </mxCell>
        <mxCell id="y6izujd-BnKyKJJSsD-p-65" value="存储池级复制" style="text;html=1;align=center;verticalAlign=middle;resizable=0;points=[];autosize=1;strokeColor=none;fillColor=none;" vertex="1" parent="1">
          <mxGeometry x="470" y="65" width="100" height="30" as="geometry" />
        </mxCell>
        <mxCell id="y6izujd-BnKyKJJSsD-p-66" value="" style="edgeStyle=orthogonalEdgeStyle;rounded=0;orthogonalLoop=1;jettySize=auto;html=1;" edge="1" parent="1" source="y6izujd-BnKyKJJSsD-p-67" target="y6izujd-BnKyKJJSsD-p-64">
          <mxGeometry relative="1" as="geometry" />
        </mxCell>
        <mxCell id="y6izujd-BnKyKJJSsD-p-67" value="数据对象B" style="rounded=1;whiteSpace=wrap;html=1;fillColor=#f8cecc;strokeColor=#b85450;glass=0;sketch=1;" vertex="1" parent="1">
          <mxGeometry x="650" y="-100" width="120" height="60" as="geometry" />
        </mxCell>
        <mxCell id="y6izujd-BnKyKJJSsD-p-68" value="备份" style="text;html=1;align=center;verticalAlign=middle;resizable=0;points=[];autosize=1;strokeColor=none;fillColor=none;" vertex="1" parent="1">
          <mxGeometry x="350" y="-10" width="50" height="30" as="geometry" />
        </mxCell>
        <mxCell id="y6izujd-BnKyKJJSsD-p-69" value="备份" style="text;html=1;align=center;verticalAlign=middle;resizable=0;points=[];autosize=1;strokeColor=none;fillColor=none;" vertex="1" parent="1">
          <mxGeometry x="700" y="-10" width="50" height="30" as="geometry" />
        </mxCell>
        <mxCell id="y6izujd-BnKyKJJSsD-p-70" value="存储池C" style="rounded=1;whiteSpace=wrap;html=1;fillColor=#ffcc99;strokeColor=#36393d;glass=0;sketch=1;" vertex="1" parent="1">
          <mxGeometry x="970" y="60" width="120" height="60" as="geometry" />
        </mxCell>
        <mxCell id="y6izujd-BnKyKJJSsD-p-71" value="策略级复制" style="text;html=1;align=center;verticalAlign=middle;resizable=0;points=[];autosize=1;strokeColor=none;fillColor=none;" vertex="1" parent="1">
          <mxGeometry x="830" y="65" width="80" height="30" as="geometry" />
        </mxCell>
        <mxCell id="y6izujd-BnKyKJJSsD-p-72" value="数据对象C" style="rounded=1;whiteSpace=wrap;html=1;fillColor=#bac8d3;strokeColor=#23445d;glass=0;sketch=1;" vertex="1" parent="1">
          <mxGeometry x="970" y="660" width="120" height="60" as="geometry" />
        </mxCell>
        <mxCell id="y6izujd-BnKyKJJSsD-p-76" value="" style="edgeStyle=orthogonalEdgeStyle;rounded=0;orthogonalLoop=1;jettySize=auto;html=1;" edge="1" parent="1">
          <mxGeometry relative="1" as="geometry">
            <mxPoint x="1029.5" y="720" as="sourcePoint" />
            <mxPoint x="1029.5" y="820" as="targetPoint" />
          </mxGeometry>
        </mxCell>
        <mxCell id="y6izujd-BnKyKJJSsD-p-77" value="备份" style="text;html=1;align=center;verticalAlign=middle;resizable=0;points=[];autosize=1;strokeColor=none;fillColor=none;" vertex="1" parent="1">
          <mxGeometry x="1020" y="750" width="50" height="30" as="geometry" />
        </mxCell>
        <mxCell id="y6izujd-BnKyKJJSsD-p-78" value="数据对象C" style="rounded=1;whiteSpace=wrap;html=1;fillColor=#bac8d3;strokeColor=#23445d;glass=0;sketch=1;" vertex="1" parent="1">
          <mxGeometry x="970" y="1030" width="120" height="60" as="geometry" />
        </mxCell>
        <mxCell id="y6izujd-BnKyKJJSsD-p-79" value="" style="edgeStyle=orthogonalEdgeStyle;rounded=0;orthogonalLoop=1;jettySize=auto;html=1;" edge="1" parent="1">
          <mxGeometry relative="1" as="geometry">
            <mxPoint x="1029.5" y="1090" as="sourcePoint" />
            <mxPoint x="1029.5" y="1190" as="targetPoint" />
          </mxGeometry>
        </mxCell>
        <mxCell id="y6izujd-BnKyKJJSsD-p-80" value="备份" style="text;html=1;align=center;verticalAlign=middle;resizable=0;points=[];autosize=1;strokeColor=none;fillColor=none;" vertex="1" parent="1">
          <mxGeometry x="1020" y="1120" width="50" height="30" as="geometry" />
        </mxCell>
      </root>
    </mxGraphModel>
  </diagram>
</mxfile>
